<?xml version="1.0" encoding="UTF-8" standalone="no"?>
<svg width="21px" height="31px" viewBox="0 0 21 31" version="1.1" xmlns="http://www.w3.org/2000/svg" xmlns:xlink="http://www.w3.org/1999/xlink">
    <!-- Generator: Sketch 3.6.1 (26313) - http://www.bohemiancoding.com/sketch -->
    <title>Page</title>
    <desc>A page with a paperclip.</desc>
    <defs></defs>
    <g id="Page-2" stroke="none" stroke-width="1" fill="none" fill-rule="evenodd">
        <path d="M19.6203921,30.0884422 L1.37541777,30.0884422 C1.19733626,30.0884422 1.04753829,29.932359 1.04753829,29.7469447 L1.04753829,6.43083753 C1.04753829,6.24228064 1.19733626,6.08305482 1.37541777,6.08305482 L7.00698359,6.08095974 C7.0101262,6.08095974 7.01326882,6.08305482 7.01641143,6.08305482 C7.01955405,6.08305482 7.02269666,6.08095974 7.02583928,6.08095974 L10.4439567,6.07991221 L10.4439567,13.6242829 C10.4439567,14.788098 9.49698209,15.734025 8.3342146,15.734025 L8.33316706,15.734025 C7.76959146,15.734025 7.24058463,15.514042 6.84147254,15.1159775 C6.44236045,14.7168654 6.22342495,14.1878585 6.22342495,13.6242829 L6.22342495,7.65226717 C6.22342495,7.36209907 5.98877638,7.12849803 5.69965581,7.12849803 C5.41053524,7.12849803 5.17588667,7.36209907 5.17588667,7.65226717 L5.17588667,13.6242829 C5.17588667,14.4675513 5.50376615,15.2605377 6.10086297,15.856587 C6.69795979,16.4526363 7.48989874,16.7815633 8.33316706,16.7815633 L8.3342146,16.7815633 C10.0752232,16.7815633 11.491495,15.3652916 11.491495,13.6242829 L11.491495,6.07991221 L15.6261286,6.07781713 L15.6261286,9.8856188 C15.6261286,10.1757869 15.8607772,10.4093879 16.1498977,10.4093879 L19.9524617,10.4093879 L19.9524617,29.7469447 C19.9524617,29.932359 19.8005687,30.0884422 19.6203921,30.0884422 L19.6203921,30.0884422 Z M7.54018058,2.49942635 C7.54018058,1.6991071 8.19174939,1.04753829 8.99311618,1.04753829 C9.79343543,1.04753829 10.4439567,1.6991071 10.4439567,2.49942635 L10.4439567,5.03551654 L7.54018058,5.03551654 L7.54018058,2.49942635 Z M19.4894498,9.36184965 L16.6736669,9.36184965 L16.6736669,6.58377812 L19.4894498,9.36184965 Z M20.589365,8.97635556 L17.0057365,5.44091385 C16.8328927,5.27016511 16.596149,5.03551654 16.1498977,5.03551654 L11.491495,5.03551654 L11.491495,2.49942635 C11.491495,1.1219135 10.370629,0 8.99311618,0 C7.61455579,0 6.49264229,1.12086596 6.49264229,2.49942635 L6.49264229,5.03551654 L1.37541777,5.03551654 C0.615952512,5.03551654 0,5.66194443 0,6.43083753 L0,29.7469447 C0,30.5126952 0.615952512,31.1359804 1.37541777,31.1359804 L19.6203921,31.1359804 C20.3819524,31.1359804 21,30.5126952 21,29.7469447 L21,9.8856188 C21,9.43936749 20.7810645,9.16491246 20.589365,8.97635556 L20.589365,8.97635556 Z" id="Page-1" fill="#C5DCED"></path>
    </g>
</svg>
