<?xml version="1.0" encoding="UTF-8" standalone="no"?>
<svg width="26px" height="26px" viewBox="0 0 26 26" version="1.1" xmlns="http://www.w3.org/2000/svg" xmlns:xlink="http://www.w3.org/1999/xlink">
    <!-- Generator: Sketch 39.1 (31720) - http://www.bohemiancoding.com/sketch -->
    <title>Artboard Copy</title>
    <desc>Created with Sketch.</desc>
    <defs>
        <polygon id="path-1" points="0.135815789 1.72193878 3.03994737 1.72193878 3.03994737 0.171539541 0.135815789 0.171539541 0.135815789 1.72193878"></polygon>
        <polygon id="path-3" points="12.7543684 13.5839617 12.7543684 0.0626785714 0.000136842104 0.0626785714 0.000136842104 13.5839617"></polygon>
    </defs>
    <g id="Page-1" stroke="none" stroke-width="1" fill="none" fill-rule="evenodd">
        <g id="Artboard-Copy">
            <g id="Group-2-Copy" transform="translate(6.000000, 5.000000)">
                <g id="Page-1">
                    <g id="Group-3" transform="translate(4.789474, 14.746133)">
                        <mask id="mask-2" fill="white">
                            <use xlink:href="#path-1"></use>
                        </mask>
                        <g id="Clip-2"></g>
                        <path d="M2.86410526,0.171539541 L0.311315789,0.171539541 C0.214157895,0.171539541 0.135815789,0.250404337 0.135815789,0.348554847 C0.135815789,1.10586352 0.787184211,1.72197321 1.58771053,1.72197321 C2.38823684,1.72197321 3.03994737,1.10586352 3.03994737,0.348554847 C3.03994737,0.250404337 2.96126316,0.171539541 2.86410526,0.171539541" id="Fill-1" fill="#C5DCED" mask="url(#mask-2)"></path>
                    </g>
                    <g id="Group-6" transform="translate(0.000000, 0.281847)">
                        <mask id="mask-4" fill="white">
                            <use xlink:href="#path-3"></use>
                        </mask>
                        <g id="Clip-5"></g>
                        <path d="M10.6416632,10.6652755 C10.7891105,10.2409898 10.8633474,9.80430612 10.8633474,9.36383418 L10.8633474,5.79287755 C10.8633474,3.97141071 9.6499,2.38171684 7.82921579,1.79797959 L7.82921579,1.43740561 C7.82921579,0.679408163 7.17784737,0.0626096939 6.37697895,0.0626096939 C5.57645263,0.0626096939 4.92508421,0.679408163 4.92508421,1.43740561 L4.92508421,1.79729082 C3.10474211,2.38240561 1.89163684,3.9717551 1.89163684,5.79287755 L1.89163684,9.36383418 C1.89163684,9.80637245 1.96587368,10.2427117 2.11263684,10.6652755 C0.911847368,10.7310536 0.000136842104,11.3471633 0.000136842104,12.1216913 L0.000136842104,13.4069464 C0.000136842104,13.5044082 0.0784789474,13.5839617 0.175636842,13.5839617 L12.5783211,13.5839617 C12.6754789,13.5839617 12.7545053,13.5044082 12.7545053,13.4069464 L12.7545053,12.1216913 C12.7545053,11.3471633 11.8424526,10.7310536 10.6416632,10.6652755" id="Fill-4" fill="#C5DCED" mask="url(#mask-4)"></path>
                    </g>
                </g>
            </g>
        </g>
    </g>
</svg>