<?xml version="1.0" encoding="UTF-8" standalone="no"?>
<svg width="96px" height="100px" viewBox="0 0 96 100" version="1.1" xmlns="http://www.w3.org/2000/svg" xmlns:xlink="http://www.w3.org/1999/xlink">
    <!-- Generator: Sketch 3.8.3 (29802) - http://www.bohemiancoding.com/sketch -->
    <title>Artboard 8</title>
    <desc>Created with Sketch.</desc>
    <defs></defs>
    <g id="Page-1" stroke="none" stroke-width="1" fill="none" fill-rule="evenodd">
        <g id="Artboard-8">
            <g id="Group" transform="translate(5.000000, 7.000000)">
                <circle id="Oval-236" fill="#E8E8E8" cx="43.5" cy="43.5" r="43.5"></circle>
                <path d="M36.4166485,35.2661849 C35.9907484,35.2939941 35.6680852,35.6570377 35.6958945,36.0756999 L37.016642,55.5859637 C37.0436893,55.9878641 37.3838761,56.2960512 37.7880622,56.2960512 C37.8052048,56.2960512 37.8227285,56.2952893 37.8402521,56.2949084 C38.2661522,56.2663372 38.5888154,55.9036745 38.5606252,55.4850124 L37.2402586,35.9743676 C37.2124494,35.5557055 36.8345487,35.2459946 36.4166485,35.2661849 L36.4166485,35.2661849 Z M49.1887,56.2949084 C49.2058427,56.2952893 49.2233663,56.2960512 49.2408899,56.2960512 C49.6439331,56.2960512 49.9848818,55.9878641 50.0119291,55.5859637 L51.3334385,36.0756999 C51.3612478,35.6570377 51.0385846,35.2939941 50.6126845,35.2661849 C50.1993557,35.2593278 49.8172646,35.5557055 49.7890744,35.9743676 L48.4679459,55.4850124 C48.4397558,55.9036745 48.7624189,56.2663372 49.1887,56.2949084 L49.1887,56.2949084 Z M43.514857,35.2646611 C43.0870521,35.2646611 42.7411511,35.6044669 42.7411511,36.0250337 L42.7411511,55.5352976 C42.7411511,55.9558644 43.0870521,56.2960512 43.514857,56.2960512 C43.9422809,56.2960512 44.2881819,55.9558644 44.2881819,55.5352976 L44.2881819,36.0250337 C44.2881819,35.6044669 43.9422809,35.2646611 43.514857,35.2646611 L43.514857,35.2646611 Z M54.2103596,59.5318255 L32.7896404,59.5318255 L30.7709957,32.1424093 L38.5065305,32.1424093 L48.4934695,32.1424093 L56.2290043,32.1424093 L54.2103596,59.5318255 Z M40.6021268,27.5207454 L46.3974923,27.5207454 L47.4271954,30.621664 L39.5724237,30.621664 L40.6021268,27.5207454 Z M60.2262941,30.621664 L57.0609953,30.621664 L49.0546062,30.621664 L47.6942401,26.5241848 C47.5906221,26.2114263 47.2938635,26 46.95901,26 L40.04099,26 C39.7061365,26 39.4093779,26.2114263 39.3057599,26.5241848 L37.9453938,30.621664 L29.9390047,30.621664 L26.7733249,30.621664 C26.345901,30.621664 26,30.9618508 26,31.3820367 C26,31.8022226 26.345901,32.1424093 26.7733249,32.1424093 L29.2197745,32.1424093 L31.2989899,60.3474357 C31.3275611,60.7443837 31.6647002,61.0529518 32.0700292,61.0529518 L54.9295899,61.0529518 C55.3352998,61.0529518 55.6724389,60.7443837 55.7010101,60.3474357 L57.7802255,32.1424093 L60.2262941,32.1424093 C60.654099,32.1424093 61,31.8022226 61,31.3820367 C61,30.9618508 60.654099,30.621664 60.2262941,30.621664 L60.2262941,30.621664 Z" id="Fill-1" fill="#333541"></path>
            </g>
        </g>
    </g>
</svg>